<svg width="1440" height="36" viewBox="0 0 1440 36" fill="none" xmlns="http://www.w3.org/2000/svg">
<path d="M1440 8.647L1428.75 5.084L1417.5 5.848L1406.25 1.653L1395 2.643L1383.75 0.879L1372.5 0.547L1361.25 0L1350 2.48L1338.75 2.014L1327.5 4.842L1316.25 5.843L1305 4.393L1293.75 4.869L1282.5 1.989L1271.25 2.159L1260 4.073L1248.75 5.013L1237.5 4.987L1226.25 3.373L1215 5.504L1203.75 7.264L1192.5 6.012L1181.25 4.029L1170 3.756L1158.75 6.575L1147.5 5.775L1136.25 4.34L1125 6.916L1113.75 8.961L1102.5 7.784L1091.25 7.814L1080 6.566L1068.75 7.424L1057.5 9.376L1046.25 10.648L1035 10.155L1023.75 9.414L1012.5 5.191L1001.25 3.965L990 6.223L978.75 8.54L967.5 5.655L956.25 4.943L945 6.796L933.75 6.266L922.5 7.678L911.25 10.908L900 9.431L888.75 13.018L877.5 13.851L866.25 14.741L855 13.365L843.75 10.852L832.5 12.798L821.25 11.938L810 9.24L798.75 6.814L787.5 8.295L776.25 7.18L765 10.962L753.75 9.566L742.5 7.887L731.25 7.121L720 7.291L708.75 6.931L697.5 10.939L686.25 8.934L675 8.447L663.75 7.017L652.5 8.159L641.25 6.951L630 9.106L618.75 8.741L607.5 13.048L596.25 9.905L585 11.95L573.75 9.557L562.5 10.227L551.25 7.196L540 7.748L528.75 10.174L517.5 8.78L506.25 6.75L495 7.132L483.75 7.472L472.5 11.195L461.25 14.495L450 13.979L438.75 12.235L427.5 11.896L416.25 11.161L405 15.089L393.75 16.999L382.5 15.657L371.25 19.057L360 19.93L348.75 21.124L337.5 20.757L326.25 20.992L315 23.705L303.75 23.647L292.5 19.004L281.25 21.061L270 20.434L258.75 19.015L247.5 18.145L236.25 17.229L225 19.594L213.75 19.894L202.5 22.61L191.25 22.763L180 23.824L168.75 22.88L157.5 21.134L146.25 21.308L135 20.608L123.75 24.037L112.5 23.966L101.25 23.331L90 21.787L78.75 25.324L67.5 23.667L56.25 24.89L45 22.909L33.75 24.059L22.5 24.159L11.25 24.644L0 19.924V35.276H1440V8.647Z" fill="#222222"/>
</svg>
