<svg width="1440" height="36" viewBox="0 0 1440 36" fill="none" xmlns="http://www.w3.org/2000/svg">
<path d="M0 26.629L11.25 30.192L22.5 29.428L33.75 33.623L45 32.633L56.25 34.397L67.5 34.729L78.75 35.276L90 32.796L101.25 33.262L112.5 30.434L123.75 29.433L135 30.883L146.25 30.407L157.5 33.287L168.75 33.117L180 31.203L191.25 30.263L202.5 30.289L213.75 31.903L225 29.772L236.25 28.012L247.5 29.264L258.75 31.247L270 31.52L281.25 28.701L292.5 29.501L303.75 30.936L315 28.36L326.25 26.315L337.5 27.492L348.75 27.462L360 28.71L371.25 27.852L382.5 25.9L393.75 24.628L405 25.121L416.25 25.862L427.5 30.085L438.75 31.311L450 29.053L461.25 26.736L472.5 29.621L483.75 30.333L495 28.48L506.25 29.01L517.5 27.598L528.75 24.368L540 25.845L551.25 22.258L562.5 21.425L573.75 20.535L585 21.911L596.25 24.424L607.5 22.478L618.75 23.338L630 26.036L641.25 28.462L652.5 26.981L663.75 28.096L675 24.314L686.25 25.71L697.5 27.389L708.75 28.155L720 27.985L731.25 28.345L742.5 24.337L753.75 26.342L765 26.829L776.25 28.259L787.5 27.117L798.75 28.325L810 26.17L821.25 26.535L832.5 22.228L843.75 25.371L855 23.326L866.25 25.719L877.5 25.049L888.75 28.08L900 27.528L911.25 25.102L922.5 26.496L933.75 28.526L945 28.144L956.25 27.804L967.5 24.081L978.75 20.781L990 21.297L1001.25 23.041L1012.5 23.38L1023.75 24.115L1035 20.187L1046.25 18.277L1057.5 19.619L1068.75 16.219L1080 15.346L1091.25 14.152L1102.5 14.519L1113.75 14.284L1125 11.571L1136.25 11.629L1147.5 16.272L1158.75 14.215L1170 14.842L1181.25 16.261L1192.5 17.131L1203.75 18.047L1215 15.682L1226.25 15.382L1237.5 12.666L1248.75 12.513L1260 11.452L1271.25 12.396L1282.5 14.142L1293.75 13.968L1305 14.668L1316.25 11.239L1327.5 11.31L1338.75 11.945L1350 13.489L1361.25 9.952L1372.5 11.609L1383.75 10.386L1395 12.367L1406.25 11.217L1417.5 11.117L1428.75 10.632L1440 15.352V0H0V26.629Z" fill="#222222"/>
</svg>
