<svg width="30" height="30" viewBox="0 0 30 30" fill="none" xmlns="http://www.w3.org/2000/svg">
<g clip-path="url(#clip0_8_20630)">
<path d="M24.8899 13.7975C24.2623 13.17 23.321 13.0437 22.5665 13.4174L14.323 5.17398C14.6967 4.41941 14.5704 3.47816 13.9429 2.85068C13.5618 2.46965 13.0552 2.25977 12.5162 2.25977C11.9773 2.25977 11.4707 2.46959 11.0896 2.85068L6.1882 7.75205C5.40164 8.53867 5.40164 9.81859 6.1882 10.6052C6.58154 10.9985 7.09822 11.1952 7.6149 11.1952C7.92258 11.1952 8.23002 11.1249 8.51168 10.9854L11.1745 13.6482L0.175019 24.6474C-0.05836 24.8808 -0.05836 25.2592 0.175019 25.4926L2.24783 27.5654C2.35992 27.6774 2.51191 27.7404 2.67041 27.7404C2.82891 27.7404 2.9809 27.6774 3.09299 27.5654L14.0924 16.566L16.7545 19.228C16.6174 19.5035 16.5444 19.8088 16.5444 20.1255C16.5444 20.6644 16.7543 21.1711 17.1353 21.552C17.5164 21.933 18.023 22.1429 18.562 22.1429C19.1009 22.1429 19.6075 21.933 19.9886 21.552L24.8899 16.6506C25.271 16.2696 25.4808 15.7629 25.4808 15.224C25.4808 14.685 25.2709 14.1786 24.8899 13.7975ZM8.19603 9.76023C7.87559 10.0805 7.35404 10.0805 7.03348 9.76C6.71285 9.43938 6.71285 8.91766 7.03348 8.59709L11.9348 3.69572C12.0902 3.54039 12.2967 3.4549 12.5163 3.4549C12.7359 3.4549 12.9424 3.54045 13.0977 3.69572C13.4183 4.01635 13.4183 4.53801 13.0977 4.85863L8.19603 9.76023ZM2.67041 26.2977L1.44275 25.07L12.0197 14.4931L13.2473 15.7208L2.67041 26.2977ZM9.43178 10.2149L13.5527 6.09396L21.6465 14.1878L17.5256 18.3088L9.43178 10.2149ZM24.0447 15.8056L19.1433 20.707C18.988 20.8623 18.7815 20.9478 18.5619 20.9478C18.3422 20.9478 18.1358 20.8623 17.9805 20.707C17.9805 20.707 17.9805 20.707 17.9804 20.707C17.8251 20.5517 17.7396 20.3452 17.7396 20.1256C17.7396 19.906 17.8252 19.6994 17.9805 19.5442L22.8821 14.6426C23.0374 14.4874 23.2438 14.402 23.4632 14.402C23.6829 14.4019 23.8894 14.4874 24.0448 14.6428C24.2001 14.7981 24.2855 15.0046 24.2855 15.2242C24.2855 15.4438 24.2 15.6503 24.0447 15.8056Z" fill="black"/>
<path d="M27.9824 23.6953H18.7303C17.6178 23.6953 16.7128 24.6004 16.7128 25.7128C16.7128 26.8253 17.6179 27.7303 18.7303 27.7303H27.9824C29.0949 27.7303 30 26.8252 30 25.7128C30 24.6004 29.095 23.6953 27.9824 23.6953ZM27.9824 26.5351H18.7303C18.2769 26.5351 17.9079 26.1662 17.9079 25.7128C17.9079 25.2594 18.2769 24.8905 18.7303 24.8905H27.9824C28.4358 24.8905 28.8047 25.2594 28.8047 25.7128C28.8047 26.1662 28.4358 26.5351 27.9824 26.5351Z" fill="black"/>
<path d="M17.3665 10.618L17.1223 10.3738C16.8889 10.1404 16.5105 10.1404 16.2771 10.3738C16.0437 10.6072 16.0437 10.9855 16.2772 11.2189L16.5214 11.4631C16.6381 11.5799 16.791 11.6382 16.944 11.6382C17.0969 11.6382 17.2499 11.5798 17.3665 11.4631C17.5999 11.2298 17.5999 10.8514 17.3665 10.618Z" fill="black"/>
<path d="M15.7796 9.01817L13.9756 7.22725C13.7413 6.99463 13.363 6.9961 13.1304 7.23029C12.8979 7.46449 12.8993 7.84289 13.1336 8.07545L14.9376 9.86643C15.0541 9.98221 15.2064 10.0399 15.3586 10.0399C15.5122 10.0399 15.6659 9.98098 15.7827 9.86332C16.0153 9.62912 16.0139 9.25072 15.7796 9.01817Z" fill="black"/>
</g>
<defs>
<clipPath id="clip0_8_20630">
<rect width="30" height="30" fill="white"/>
</clipPath>
</defs>
</svg>
