<svg width="62" height="62" viewBox="0 0 62 62" fill="none" xmlns="http://www.w3.org/2000/svg">
<g clip-path="url(#clip0_8_20547)">
<path d="M4.20815 19.638H57.7919C57.793 19.6382 57.7938 19.638 57.7947 19.638C58.5694 19.638 59.1974 19.0099 59.1974 18.2353C59.1974 17.7099 58.9086 17.2519 58.481 17.0116L31.7462 0.214931C31.2898 -0.0716437 30.7101 -0.0716437 30.2536 0.214931L3.46176 17.0475C2.93252 17.3801 2.68718 18.0228 2.86014 18.6236C3.03323 19.2244 3.58296 19.638 4.20815 19.638ZM31 3.05936L52.9225 16.8326H9.07753L31 3.05936Z" fill="#D8D6BF"/>
<path d="M60.5973 52.1809H59.1946V47.9728C59.1946 47.1982 58.5664 46.5701 57.7919 46.5701H56.3891V25.2488H57.7919C58.5664 25.2488 59.1946 24.6207 59.1946 23.8461C59.1946 23.0715 58.5664 22.4434 57.7919 22.4434H4.20815C3.43357 22.4434 2.80543 23.0715 2.80543 23.8461C2.80543 24.6207 3.43357 25.2488 4.20815 25.2488H5.61086V46.5701H4.20815C3.43357 46.5701 2.80543 47.1982 2.80543 47.9728V52.1809H1.40271C0.628136 52.1809 0 52.8091 0 53.5836V60.5972C0 61.3718 0.628136 61.9999 1.40271 61.9999H60.5973C61.3719 61.9999 62 61.3718 62 60.5972V53.5836C62 52.8091 61.3719 52.1809 60.5973 52.1809ZM53.5837 46.5701H50.7783V25.2488H53.5837V46.5701ZM42.4556 46.5701V25.2488H47.9729V46.5701H42.4556ZM36.8447 46.5701V25.2488H39.6501V46.5701H36.8447ZM27.9607 46.5701V25.2488H34.0393V46.5701H27.9607ZM22.3499 46.5701V25.2488H25.1553V46.5701H22.3499ZM14.0272 46.5701V25.2488H19.5444V46.5701H14.0272ZM8.41629 25.2488H11.2217V46.5701H8.41629V25.2488ZM59.1946 59.1945H2.80543V54.9863H14.1129C14.8874 54.9863 15.5156 54.3582 15.5156 53.5836C15.5156 52.8091 14.8874 52.1809 14.1129 52.1809H5.61086V49.3755H56.3891V52.1809H18.8978C18.1232 52.1809 17.4951 52.8091 17.4951 53.5836C17.4951 54.3582 18.1232 54.9863 18.8978 54.9863H59.1946V59.1945Z" fill="#D8D6BF"/>
</g>
<defs>
<clipPath id="clip0_8_20547">
<rect width="62" height="62" fill="white"/>
</clipPath>
</defs>
</svg>
