<svg width="62" height="62" viewBox="0 0 62 62" fill="none" xmlns="http://www.w3.org/2000/svg">
<g clip-path="url(#clip0_8_20582)">
<path d="M59.1531 59.7858V46.5001H51.5612V11.0716V10.1226V0.316406H29.4184V9.17357H10.4388V46.5001H2.84691V59.7858H0V61.6837H62V59.7858H59.1531ZM10.4388 59.7858H4.74494V48.398H10.4388V59.7858ZM34.4796 59.7858H27.5205V54.092H30.0511V56.9389H31.949V54.092H34.4796V59.7858ZM49.6632 59.7858H36.3775V54.092H38.5919V52.1939H23.4081V54.0918H25.6225V59.7857H12.3368V49.6632H49.6633L49.6632 59.7858ZM16.1326 47.7654V42.0716H21.8264V47.7654H16.1326ZM28.1531 47.7654V42.0716H33.8469V47.7654H28.1531ZM40.1735 47.7654V42.0716H45.8673V47.7654H40.1735ZM49.6632 47.7654H47.7653V40.1736H38.2756V47.7654H35.7449V40.1736H26.2552V47.7654H23.7246V40.1736H14.2348V47.7654H12.3369V38.2757H49.6635V47.7654H49.6632ZM49.6632 36.3776H12.3368V34.4797H49.6633L49.6632 36.3776ZM16.1326 32.5817V26.8879H21.8264V32.5817H16.1326ZM28.1531 32.5817V26.8879H33.8469V32.5817H28.1531ZM40.1735 32.5817V26.8879H45.8673V32.5817H40.1735ZM49.6632 32.5817H47.7653V24.9899H38.2756V32.5817H35.7449V24.9899H26.2552V32.5817H23.7246V24.9899H14.2348V32.5817H12.3369V22.4592H49.6635V32.5817H49.6632ZM16.1326 20.5613V14.8675H21.8264V20.5613H16.1326ZM28.1531 20.5613V14.8675H33.8469V20.5613H28.1531ZM40.1735 20.5613V14.8675H45.8673V20.5613H40.1735ZM49.6632 20.5613H47.7653V12.9695H38.2756V20.5613H35.7449V12.9695H26.2552V20.5613H23.7246V12.9695H14.2348V20.5613H12.3369V11.0716H49.6635V20.5613H49.6632ZM49.6632 9.17357H31.3163V2.21443H49.6632V9.17357ZM57.2551 59.7858H51.5612V48.398H57.2551V59.7858Z" fill="#D8D6BF"/>
<path d="M36.0612 4.74512H33.5306V6.64302H36.0612V4.74512Z" fill="#D8D6BF"/>
<path d="M39.8572 4.74512H37.3265V6.64302H39.8572V4.74512Z" fill="#D8D6BF"/>
<path d="M43.6531 4.74512H41.1225V6.64302H43.6531V4.74512Z" fill="#D8D6BF"/>
<path d="M47.449 4.74512H44.9184V6.64302H47.449V4.74512Z" fill="#D8D6BF"/>
<path d="M14.2347 51.561V57.8876H21.1938V51.561H14.2347ZM19.2959 55.9896H16.1327V53.4589H19.2959V55.9896Z" fill="#D8D6BF"/>
<path d="M40.8062 51.561V57.8876H47.7653V51.561H40.8062ZM45.8674 55.9896H42.7042V53.4589H45.8674V55.9896Z" fill="#D8D6BF"/>
</g>
<defs>
<clipPath id="clip0_8_20582">
<rect width="62" height="62" fill="white"/>
</clipPath>
</defs>
</svg>
