<svg width="62" height="62" viewBox="0 0 62 62" fill="none" xmlns="http://www.w3.org/2000/svg">
<path d="M48.853 0H13.1471C10.4846 0 8.31851 2.166 8.31851 4.82848V57.1715C8.31851 59.834 10.4845 62 13.147 62H48.8529C51.5154 62 53.6814 59.834 53.6814 57.1715V4.82848C53.6814 2.166 51.5152 0 48.853 0ZM51.3796 57.1715H51.3795C51.3795 58.5647 50.246 59.6981 48.8529 59.6981H13.1471C11.7539 59.6981 10.6205 58.5647 10.6205 57.1715V4.82848C10.6205 3.4353 11.7539 2.30187 13.1471 2.30187H48.853C50.2462 2.30187 51.3796 3.4353 51.3796 4.82848V57.1715Z" fill="#D8D6BF"/>
<path d="M46.2698 6.18555H15.7302C15.0944 6.18555 14.5793 6.7008 14.5793 7.33642V17.3051C14.5793 17.9407 15.0944 18.456 15.7302 18.456H46.2698C46.9056 18.456 47.4207 17.9407 47.4207 17.3051V7.33642C47.4207 6.7008 46.9055 6.18555 46.2698 6.18555ZM45.119 16.1542H16.8812V8.48729H45.119V16.1542Z" fill="#D8D6BF"/>
<path d="M22.4162 21.9849H15.7302C15.0944 21.9849 14.5793 22.5001 14.5793 23.1357V30.3208C14.5793 30.9564 15.0944 31.4717 15.7302 31.4717H22.4162C23.052 31.4717 23.5671 30.9564 23.5671 30.3208V23.1357C23.5672 22.5002 23.0521 21.9849 22.4162 21.9849ZM21.2654 29.1701H16.8812V24.2867H21.2654V29.1701Z" fill="#D8D6BF"/>
<path d="M22.4162 34.3538H15.7302C15.0944 34.3538 14.5793 34.869 14.5793 35.5046V42.6897C14.5793 43.3253 15.0944 43.8406 15.7302 43.8406H22.4162C23.052 43.8406 23.5671 43.3253 23.5671 42.6897V35.5046C23.5672 34.8691 23.0521 34.3538 22.4162 34.3538ZM21.2654 41.539H16.8812V36.6556H21.2654V41.539Z" fill="#D8D6BF"/>
<path d="M22.4162 46.7227H15.7302C15.0944 46.7227 14.5793 47.2379 14.5793 47.8735V55.0586C14.5793 55.6942 15.0944 56.2095 15.7302 56.2095H22.4162C23.052 56.2095 23.5671 55.6942 23.5671 55.0586V47.8735C23.5672 47.2379 23.0521 46.7227 22.4162 46.7227ZM21.2654 53.9077H16.8812V49.0244H21.2654V53.9077Z" fill="#D8D6BF"/>
<path d="M34.3431 21.9849H27.657C27.0213 21.9849 26.5062 22.5001 26.5062 23.1357V30.3208C26.5062 30.9564 27.0213 31.4717 27.657 31.4717H34.3431C34.9788 31.4717 35.494 30.9564 35.494 30.3208V23.1357C35.494 22.5002 34.9787 21.9849 34.3431 21.9849ZM33.1921 29.1701H28.8079V24.2867H33.1921V29.1701Z" fill="#D8D6BF"/>
<path d="M34.3431 34.3538H27.657C27.0213 34.3538 26.5062 34.869 26.5062 35.5046V42.6897C26.5062 43.3253 27.0213 43.8406 27.657 43.8406H34.3431C34.9788 43.8406 35.494 43.3253 35.494 42.6897V35.5046C35.494 34.8691 34.9787 34.3538 34.3431 34.3538ZM33.1921 41.539H28.8079V36.6556H33.1921V41.539Z" fill="#D8D6BF"/>
<path d="M34.3431 46.7227H27.657C27.0213 46.7227 26.5062 47.2379 26.5062 47.8735V55.0586C26.5062 55.6942 27.0213 56.2095 27.657 56.2095H34.3431C34.9788 56.2095 35.494 55.6942 35.494 55.0586V47.8735C35.494 47.2379 34.9787 46.7227 34.3431 46.7227ZM33.1921 53.9077H28.8079V49.0244H33.1921V53.9077Z" fill="#D8D6BF"/>
<path d="M46.2698 21.9849H39.5838C38.948 21.9849 38.4329 22.5001 38.4329 23.1357V30.3208C38.4329 30.9564 38.948 31.4717 39.5838 31.4717H46.2698C46.9056 31.4717 47.4207 30.9564 47.4207 30.3208V23.1357C47.4207 22.5002 46.9054 21.9849 46.2698 21.9849ZM45.119 29.1701H40.7346V24.2867H45.1188V29.1701H45.119Z" fill="#D8D6BF"/>
<path d="M46.2698 34.3538H39.5838C38.948 34.3538 38.4329 34.869 38.4329 35.5046V55.0588C38.4329 55.6944 38.948 56.2097 39.5838 56.2097H46.2698C46.9056 56.2097 47.4207 55.6944 47.4207 55.0588V35.5048C47.4207 34.8691 46.9054 34.3538 46.2698 34.3538ZM45.119 53.9078H40.7346V36.6556H45.1188V53.9078H45.119Z" fill="#D8D6BF"/>
</svg>
