<svg width="34" height="31" viewBox="0 0 34 31" fill="none" xmlns="http://www.w3.org/2000/svg">
<path fill-rule="evenodd" clip-rule="evenodd" d="M12.6243 20.4796C12.9395 20.4796 13.1482 20.6927 13.1482 21.0143C13.1482 21.336 12.9395 21.5491 12.6243 21.5491H3.5604C3.24525 21.5491 3.0365 21.336 3.0365 21.0143C3.0365 20.6927 3.24525 20.4796 3.5604 20.4796H12.6243ZM0.523897 15.9887H9.58783C9.90299 15.9887 10.1117 16.2017 10.1117 16.5234C10.1117 16.8272 9.92554 17.0342 9.63935 17.0562L9.58783 17.0582H0.523897C0.208741 17.0582 0 16.8451 0 16.5234C0 16.2196 0.186192 16.0127 0.472374 15.9906L0.523897 15.9887ZM3.5604 11.4978H12.6243C12.9395 11.4978 13.1482 11.7108 13.1482 12.0325C13.1482 12.3363 12.962 12.5433 12.6759 12.5653L12.6243 12.5673H3.5604C3.24729 12.5673 3.0365 12.3521 3.0365 12.0325C3.0365 11.7287 3.2227 11.5218 3.50888 11.4997L3.5604 11.4978ZM32.0543 10.6733C32.9681 12.4954 33.4757 14.5589 33.4757 16.7364C33.4757 24.1706 27.5551 30.2139 20.2719 30.2097C16.7623 30.2097 13.4611 28.8206 10.946 26.2533C10.7373 26.0403 10.7373 25.7186 10.946 25.5055C11.1547 25.2924 11.4699 25.2924 11.6786 25.5055C13.9827 27.8597 17.0217 29.1423 20.2695 29.1423C26.9759 29.1423 32.4234 23.5819 32.4234 16.7364C32.4234 14.869 32.0128 13.0917 31.2772 11.4993L32.0543 10.6733ZM30.4478 12.381C31.0136 13.7341 31.3268 15.2238 31.3268 16.7885C31.3268 22.9925 26.4032 28.0184 20.325 28.0184C18.0741 28.0184 15.9253 27.3228 14.0917 26.0402C13.8297 25.8815 13.7765 25.5598 13.9341 25.2924C14.0916 25.0793 14.4068 25.025 14.7199 25.1816C16.3426 26.3577 18.2827 26.9468 20.3251 26.9468C25.826 26.9468 30.2791 22.4013 30.2791 16.7863C30.2791 15.5337 30.0575 14.3344 29.6521 13.2268L30.4478 12.381ZM30.3109 7.71022C30.7779 7.64502 31.2336 7.89274 31.4394 8.3245C31.6466 8.75771 31.5572 9.27639 31.2194 9.61106C27.3659 13.5533 24.5808 16.7508 20.6819 20.7379C20.283 21.1508 19.6401 21.1812 19.2058 20.8075L14.4821 16.7276C14.2592 16.5378 14.1201 16.2654 14.096 15.9699C14.0705 15.6743 14.1613 15.3817 14.3487 15.1556C14.536 14.9282 14.8043 14.7876 15.0924 14.763C15.382 14.7384 15.6687 14.8326 15.8901 15.0238L19.8416 18.4314C23.3132 14.8397 26.0369 11.7683 29.6749 8.04634C29.8438 7.86524 30.0682 7.74645 30.3109 7.71022ZM20.325 5.55849C23.1007 5.55849 25.6357 6.60665 27.571 8.33654L26.8472 9.10814C25.1008 7.5615 22.8208 6.62588 20.3251 6.62588C18.2293 6.62588 16.1848 7.26931 14.5088 8.55187C14.2468 8.71272 13.9337 8.65841 13.7762 8.44534C13.6186 8.23229 13.6718 7.85838 13.8805 7.69753C15.7675 6.3063 18.0207 5.55849 20.325 5.55849ZM22.6828 0C22.9979 0 23.2066 0.21307 23.2066 0.53476C23.2066 0.838579 23.0205 1.04551 22.7343 1.06757L22.6828 1.06952H20.7959V3.31509C23.8753 3.41944 26.6541 4.60223 28.8342 6.51L28.9697 6.63017L29.0726 6.73521L28.3417 7.51491C26.1729 5.56836 23.3434 4.38247 20.2696 4.38247C16.9177 4.38247 13.7743 5.7737 11.4168 8.28664C11.2081 8.49971 10.8929 8.49971 10.6842 8.28664C10.4754 8.0736 10.4754 7.7519 10.6842 7.53884C13.0513 4.96699 16.1736 3.52881 19.5597 3.32513L19.7481 3.31509V1.06952H17.9145C17.5993 1.06952 17.3906 0.856451 17.3906 0.53476C17.3906 0.230942 17.5767 0.0240097 17.8629 0.00195496L17.9145 0H22.6828Z" fill="black"/>
</svg>
