<svg width="62" height="62" viewBox="0 0 62 62" fill="none" xmlns="http://www.w3.org/2000/svg">
<g clip-path="url(#clip0_8_20502)">
<path d="M61.9989 12.9145C61.9989 12.8551 61.9967 12.7962 61.9928 12.7381C61.9914 12.718 61.9889 12.698 61.9871 12.6779C61.9837 12.64 61.9801 12.6021 61.9751 12.5647C61.9713 12.5362 61.9665 12.508 61.9618 12.4798C61.9574 12.4537 61.9529 12.4275 61.9479 12.4016C61.9405 12.3637 61.9319 12.326 61.9228 12.2884C61.9202 12.2778 61.9176 12.2674 61.9148 12.257C61.7341 11.549 61.258 10.9099 60.4844 10.5644C60.4238 10.5368 60.3621 10.5119 60.2995 10.4889C60.2992 10.4887 60.2989 10.4886 60.2986 10.4885L60.2876 10.4845C60.2668 10.477 60.2463 10.4689 60.2252 10.4619L31.8829 0.15557C31.3127 -0.0518566 30.6875 -0.0518566 30.1173 0.15557L1.77497 10.462C1.75426 10.4689 1.73404 10.4769 1.71358 10.4844L1.70171 10.4887C1.70135 10.4889 1.7011 10.489 1.70074 10.4891C1.63814 10.5121 1.57638 10.5369 1.51584 10.5647C0.742076 10.91 0.265952 11.5492 0.0854074 12.2573C0.0827435 12.2677 0.0800795 12.2781 0.0774155 12.2886C0.0683338 12.3262 0.0598576 12.3638 0.05235 12.4017C0.0471432 12.4277 0.0427839 12.454 0.0383036 12.4804C0.0337022 12.5085 0.0287376 12.5366 0.0251049 12.5648C0.0200191 12.6025 0.0165075 12.6405 0.0129959 12.6788C0.0111796 12.6986 0.00875779 12.7184 0.0074258 12.7382C0.00342985 12.7971 0.00112915 12.8565 0.00112915 12.9166V49.082C0.00112915 50.1683 0.680683 51.1385 1.70159 51.5098L30.1173 61.8427C30.1175 61.8428 30.1179 61.8428 30.1181 61.8429C30.3169 61.9157 30.5255 61.9646 30.7399 61.9864C30.7445 61.9869 30.749 61.9875 30.7536 61.988C30.7933 61.9919 30.8333 61.9943 30.8733 61.9962C30.8882 61.9969 30.9029 61.9981 30.9178 61.9986C30.9452 61.9995 30.9727 61.9992 31.0002 61.9992C31.0276 61.9992 31.0551 61.9995 31.0825 61.9986C31.0973 61.9981 31.1122 61.9969 31.1271 61.9962C31.1671 61.9943 31.2071 61.9917 31.2467 61.988C31.2513 61.9875 31.2558 61.9869 31.2604 61.9864C31.4748 61.9646 31.6833 61.9157 31.8822 61.8429C31.8824 61.8428 31.8828 61.8428 31.883 61.8427L60.2987 51.5098C61.3196 51.1385 61.9992 50.1683 61.9992 49.082V12.9165C61.999 12.9159 61.9989 12.9153 61.9989 12.9145ZM31 5.33203L51.8567 12.9162L31 20.5005L10.1435 12.9163L31 5.33203ZM5.16765 16.6044L28.4168 25.0586V55.7266L5.16765 47.2723V16.6044ZM56.8325 47.2723L33.5834 55.7266V25.0587L49.1647 19.3928L56.8325 16.6045V47.2723Z" fill="#D8D6BF"/>
</g>
<defs>
<clipPath id="clip0_8_20502">
<rect width="62" height="62" fill="white"/>
</clipPath>
</defs>
</svg>
