<svg width="74" height="74" viewBox="0 0 74 74" fill="none" xmlns="http://www.w3.org/2000/svg">
<g clip-path="url(#clip0_8_20669)">
<path d="M72.3522 22.8216L62.9 16.5205V0H11.1V16.5205L1.6478 22.8216C0.617871 23.5073 0 24.663 0 25.9V70.3C0 72.3437 1.65633 74 3.7 74H70.3C72.3437 74 74 72.3437 74 70.3V25.9C74 24.663 73.3821 23.5073 72.3522 22.8216ZM62.9 20.9667L68.6227 24.7815L62.9 28.4851V20.9667ZM14.8 3.7H59.2V30.879L37 45.2436L14.8 30.879V3.7ZM11.1 20.9667V28.4851L5.37729 24.7826L11.1 20.9667ZM70.3 70.3H3.7V28.104L33.5947 47.4476L6.39609 65.046C5.53771 65.6023 5.2923 66.748 5.8473 67.6039C6.2001 68.154 6.79456 68.45 7.4013 68.45C7.74659 68.45 8.09317 68.3526 8.40406 68.154L37 49.6502L65.5961 68.154C65.9068 68.3526 66.2534 68.45 66.5988 68.45C67.2056 68.45 67.8 68.154 68.1541 67.6039C68.7091 66.748 68.4624 65.6022 67.6054 65.046L40.4065 47.4463L70.3 28.104V70.3Z" fill="#D8D6BF"/>
<path d="M55.5 7.3999H18.5V11.0999H55.5V7.3999Z" fill="#D8D6BF"/>
<path d="M55.5 14.7998H18.5V18.4998H55.5V14.7998Z" fill="#D8D6BF"/>
<path d="M37 22.2002H18.5V25.9002H37V22.2002Z" fill="#D8D6BF"/>
</g>
<defs>
<clipPath id="clip0_8_20669">
<rect width="74" height="74" fill="white"/>
</clipPath>
</defs>
</svg>
