<svg width="10" height="21" viewBox="0 0 10 21" fill="none" xmlns="http://www.w3.org/2000/svg">
<path d="M0.294846 10.914H2.29868V19.7693C2.29868 19.9441 2.43065 20.0858 2.59353 20.0858H5.9911C6.15397 20.0858 6.28595 19.9441 6.28595 19.7693V10.9557H8.58952C8.7393 10.9557 8.86532 10.8351 8.88242 10.6754L9.23229 7.41534C9.2419 7.32564 9.21542 7.23582 9.15952 7.16853C9.10356 7.10118 9.02348 7.06263 8.93945 7.06263H6.28606V5.01907C6.28606 4.40304 6.59506 4.09065 7.20457 4.09065C7.29143 4.09065 8.93945 4.09065 8.93945 4.09065C9.10232 4.09065 9.23429 3.94892 9.23429 3.77415V0.781731C9.23429 0.606897 9.10232 0.465233 8.93945 0.465233H6.54854C6.53167 0.464347 6.49423 0.462891 6.43903 0.462891C6.02418 0.462891 4.58221 0.550307 3.44316 1.67514C2.1811 2.92164 2.35653 4.41411 2.39846 4.67288V7.06257H0.294846C0.131973 7.06257 0 7.20423 0 7.37907V10.5975C0 10.7723 0.131973 10.914 0.294846 10.914Z" fill="#D8D6BF"/>
</svg>
