<svg width="62" height="62" viewBox="0 0 62 62" fill="none" xmlns="http://www.w3.org/2000/svg">
<g clip-path="url(#clip0_8_20533)">
<path d="M18.6 33.0667H14.4667C13.896 33.0667 13.4334 33.5294 13.4334 34.0999V38.2332C13.4334 38.804 13.896 39.2665 14.4667 39.2665H18.6C19.1707 39.2665 19.6333 38.804 19.6333 38.2332V34.0999C19.6333 33.5292 19.1707 33.0667 18.6 33.0667ZM17.5667 37.1999H15.5V35.1332H17.5667V37.1999Z" fill="#D8D6BF"/>
<path d="M18.6 41.3333H14.4667C13.896 41.3333 13.4334 41.7958 13.4334 42.3665C13.4334 42.9373 13.896 43.3998 14.4667 43.3998H18.6C19.1707 43.3998 19.6333 42.9373 19.6333 42.3665C19.6333 41.7958 19.1707 41.3333 18.6 41.3333Z" fill="#D8D6BF"/>
<path d="M18.6 10.3333H14.4667C13.896 10.3333 13.4334 10.796 13.4334 11.3665V15.5C13.4334 16.0707 13.896 16.5333 14.4667 16.5333H18.6C19.1707 16.5333 19.6333 16.0707 19.6333 15.5V11.3667C19.6333 10.796 19.1707 10.3333 18.6 10.3333ZM17.5667 14.4667H15.5V12.4H17.5667V14.4667Z" fill="#D8D6BF"/>
<path d="M18.6 18.6001H14.4667C13.896 18.6001 13.4334 19.0627 13.4334 19.6334C13.4334 20.2041 13.896 20.6667 14.4667 20.6667H18.6C19.1707 20.6667 19.6333 20.2041 19.6333 19.6334C19.6333 19.0627 19.1707 18.6001 18.6 18.6001Z" fill="#D8D6BF"/>
<path d="M18.6 47.5332H14.4667C13.896 47.5332 13.4334 47.9959 13.4334 48.5665V52.6999C13.4334 53.2706 13.896 53.7332 14.4667 53.7332H18.6C19.1707 53.7332 19.6333 53.2706 19.6333 52.6999V48.5666C19.6333 47.9959 19.1707 47.5332 18.6 47.5332ZM17.5667 51.6666H15.5V49.5999H17.5667V51.6666Z" fill="#D8D6BF"/>
<path d="M18.6 55.8H14.4667C13.896 55.8 13.4334 56.2626 13.4334 56.8333C13.4334 57.4041 13.896 57.8666 14.4667 57.8666H18.6C19.1707 57.8666 19.6333 57.4041 19.6333 56.8333C19.6333 56.2626 19.1707 55.8 18.6 55.8Z" fill="#D8D6BF"/>
<path d="M35.1333 46.5H31C30.4293 46.5 29.9667 46.9627 29.9667 47.5333V51.6666C29.9667 52.2373 30.4293 52.6999 31 52.6999H35.1333C35.704 52.6999 36.1666 52.2373 36.1666 51.6666V47.5333C36.1667 46.9627 35.704 46.5 35.1333 46.5ZM34.1 50.6333H32.0333V48.5666H34.1V50.6333Z" fill="#D8D6BF"/>
<path d="M35.1333 54.7666H31C30.4293 54.7666 29.9667 55.2293 29.9667 55.7999C29.9667 56.3705 30.4293 56.8332 31 56.8332H35.1333C35.704 56.8332 36.1666 56.3706 36.1666 55.7999C36.1666 55.2292 35.704 54.7666 35.1333 54.7666Z" fill="#D8D6BF"/>
<path d="M47.5333 11.3666C48.104 11.3666 48.5666 10.904 48.5666 10.3334C48.5666 9.19907 49.4989 8.26665 50.6333 8.26665H53.7333C55.4407 8.26665 56.8333 6.87407 56.8333 5.16665C56.8333 3.45923 55.4407 2.06665 53.7333 2.06665H50.6333C50.0626 2.06665 49.6 2.52923 49.6 3.09994C49.6 3.67066 50.0626 4.13324 50.6333 4.13324H53.7333C54.2993 4.13324 54.7666 4.60054 54.7666 5.16653C54.7666 5.73252 54.2993 6.19982 53.7333 6.19982H50.6333C48.3577 6.19994 46.5 8.05764 46.5 10.3332C46.5 10.904 46.9627 11.3666 47.5333 11.3666Z" fill="#D8D6BF"/>
<path d="M60.9667 41.3333H51.6667V19.6333H52.7C53.2707 19.6333 53.7333 19.1706 53.7333 18.6V14.4667C53.7333 13.896 53.2707 13.4334 52.7 13.4334H42.3667C41.796 13.4334 41.3334 13.896 41.3334 14.4667V18.6C41.3334 19.1707 41.796 19.6333 42.3667 19.6333H43.4V41.3333H26.8667V31H28.9334C29.5041 31 29.9667 30.5374 29.9667 29.9667V25.8334C29.9667 25.2627 29.5041 24.8001 28.9334 24.8001H26.8667V6.2H28.9334C29.5041 6.2 29.9667 5.73742 29.9667 5.16671V1.03329C29.9667 0.462578 29.5041 0 28.9334 0H4.13341C3.5627 0 3.1 0.462578 3.1 1.03329V5.16659C3.1 5.7373 3.5627 6.19988 4.13329 6.19988H6.2V24.7999H4.13329C3.56258 24.7999 3.1 25.2626 3.1 25.8332V29.9665C3.1 30.5372 3.5627 30.9998 4.13329 30.9998H6.2V41.333H1.03329C0.462578 41.333 0 41.7956 0 42.3663V60.9663C0 61.5374 0.462578 62 1.03329 62H7.23329H25.8333H40.3H54.7667H60.9667C61.5374 62 62 61.5374 62 60.9667V42.3667C62 41.796 61.5374 41.3333 60.9667 41.3333ZM43.4 15.5H51.6667V17.5667H50.6334H44.4334H43.4V15.5ZM49.6 19.6333V42.3666V55.8H45.4667V42.3667V19.6333H49.6ZM5.16671 2.06671H27.9V4.13341H25.8333H7.23329H5.16671V2.06671ZM8.26671 6.2H24.8V24.8H8.26671V6.2ZM5.16671 26.8667H7.23341H25.8334H27.9V28.9334H25.8333H7.23329H5.16671V26.8667ZM2.06671 43.4H6.2V59.9333H2.06671V43.4ZM8.26671 42.3667V31H24.8V42.3667V59.9334H8.26671V42.3667ZM26.8667 43.4H43.4V55.8H40.3C39.7293 55.8 39.2667 56.2626 39.2667 56.8333V59.9333H26.8667V43.4ZM41.3333 59.9333V57.8666H44.4333H50.6333H53.7333V59.9333H41.3333ZM59.9333 59.9333H55.8V56.8333C55.8 56.2626 55.3373 55.8 54.7667 55.8H51.6667V43.4H59.9334L59.9333 59.9333Z" fill="#D8D6BF"/>
</g>
<defs>
<clipPath id="clip0_8_20533">
<rect width="62" height="62" fill="white"/>
</clipPath>
</defs>
</svg>
