<svg width="28" height="28" viewBox="0 0 28 28" fill="none" xmlns="http://www.w3.org/2000/svg">
<g clip-path="url(#clip0_8_20700)">
<path d="M27.1606 12.1201H23.842V8.6572H22.1827V12.1201H18.8642V13.8515H22.1827V17.3143H23.842V13.8515H27.1606V12.1201ZM8.90843 15.5829H13.6026C13.2581 16.595 12.6221 17.471 11.7817 18.091C10.9413 18.711 9.93765 19.0445 8.90843 19.0458C6.16397 19.0458 3.93057 16.7153 3.93057 13.8515C3.93057 10.9877 6.16397 8.6572 8.90843 8.6572C10.0981 8.6572 11.243 9.10218 12.1324 9.91076L14.3127 7.29976C12.8141 5.93989 10.8944 5.19202 8.90843 5.19434C4.33378 5.19434 0.612 9.07794 0.612 13.8515C0.612 18.625 4.33378 22.5086 8.90843 22.5086C13.4831 22.5086 17.2049 18.625 17.2049 13.8515V12.1201H8.90843V15.5829Z" fill="#D8D6BF"/>
</g>
<defs>
<clipPath id="clip0_8_20700">
<rect width="26.5486" height="27.7029" fill="white" transform="translate(0.612)"/>
</clipPath>
</defs>
</svg>
