<svg width="80" height="80" viewBox="0 0 106 106" fill="none" xmlns="http://www.w3.org/2000/svg">
<path d="M62.5075 28.5501C58.9467 24.9894 54.2327 23.0432 49.2016 23.0432C44.1704 23.0432 39.442 25.0038 35.8813 28.5645L34.0216 30.4242L32.1331 28.5357C28.5724 24.975 23.8296 23 18.7984 23C13.7817 23 9.05327 24.9606 5.50696 28.5069C1.94623 32.0676 -0.014337 36.796 7.89374e-05 41.8272C7.89374e-05 46.8583 1.97506 51.5723 5.53579 55.1331L32.6089 82.2061C32.9837 82.581 33.4882 82.7828 33.9784 82.7828C34.4685 82.7828 34.9731 82.5954 35.3479 82.2206L62.4786 55.1907C66.0394 51.63 67.9999 46.9016 67.9999 41.8704C68.0143 36.8393 66.0682 32.1109 62.5075 28.5501ZM59.7396 52.4373L33.9784 78.0976L8.27481 52.394C5.44929 49.5685 3.89237 45.8204 3.89237 41.8272C3.89237 37.834 5.43488 34.0858 8.2604 31.2747C11.0715 28.4636 14.8196 26.9067 18.7984 26.9067C22.7916 26.9067 26.5542 28.4636 29.3797 31.2891L32.6377 34.5471C33.4017 35.3112 34.6271 35.3112 35.3911 34.5471L38.6203 31.318C41.4458 28.4925 45.2084 26.9355 49.1872 26.9355C53.166 26.9355 56.9141 28.4925 59.7396 31.3036C62.5651 34.1291 64.1076 37.8772 64.1076 41.8704C64.122 45.8636 62.5651 49.6118 59.7396 52.4373Z" fill="#D8D6BF"/>
</svg>
