<svg width="62" height="62" viewBox="0 0 62 62" fill="none" xmlns="http://www.w3.org/2000/svg">
<g clip-path="url(#clip0_8_20527)">
<path d="M0.572306 28.1126L29.749 2.02191C29.8 1.9709 29.851 1.93265 29.9148 1.89439C30.5524 1.28229 31.5726 1.25679 32.2484 1.85614L61.4251 27.9468C62.1392 28.5844 62.1903 29.6684 61.5654 30.3825C61.2211 30.765 60.7493 30.9563 60.2774 30.9563C59.8694 30.9563 59.4613 30.8161 59.1298 30.5228L53.8759 25.8172L53.8759 26.7354L53.8759 40.3546L53.8759 56.2437C53.8759 58.6283 51.9376 60.5794 49.5402 60.5794C49.502 60.5794 49.4765 60.5794 49.4382 60.5794C49.3999 60.5794 49.3744 60.5794 49.3362 60.5794L40.3332 60.5794C38.0889 60.5794 36.2653 58.7558 36.2653 56.5115L36.2653 41.0432C36.2653 40.6989 35.9848 40.4184 35.6405 40.4184L26.3442 40.4184C25.9999 40.4184 25.7194 40.6989 25.7194 41.0432L25.7194 56.5115C25.7194 58.7558 23.8958 60.5794 21.6515 60.5794L12.4445 60.5794C10.0216 60.5794 8.10878 58.1947 8.10878 55.147L8.10878 40.9667L8.10878 36.631L8.10877 25.983L2.85493 30.6885C2.52337 30.9818 2.11531 31.1221 1.70724 31.1221C1.23541 31.1221 0.763591 30.9308 0.419284 30.5483C-0.192815 29.8341 -0.129056 28.7502 0.572306 28.1126ZM11.5646 36.6182L11.5646 40.9539L11.5646 55.1215C11.5646 56.3584 12.1767 57.1108 12.4572 57.1108L21.6642 57.1108C22.0085 57.1108 22.2891 56.8302 22.2891 56.4859L22.2891 41.0432C22.2891 38.7988 24.1126 36.9753 26.357 36.9753L35.6532 36.9753C37.8976 36.9753 39.7211 38.7988 39.7211 41.0432L39.7211 56.5114C39.7211 56.8558 40.0017 57.1363 40.346 57.1363L49.3489 57.1363C49.3872 57.1363 49.4127 57.1363 49.451 57.1363C49.4892 57.1363 49.5147 57.1363 49.553 57.1363C50.0375 57.1363 50.4456 56.741 50.4456 56.2437L50.4456 40.3418L50.4456 26.7226L50.4456 22.7312L31.088 5.43946L11.5646 22.897L11.5646 36.6182Z" fill="#D8D6BF"/>
</g>
<defs>
<clipPath id="clip0_8_20527">
<rect width="62" height="62" fill="white" transform="matrix(-1 8.74228e-08 8.74228e-08 1 62 0)"/>
</clipPath>
</defs>
</svg>
