<svg width="20" height="21" viewBox="0 0 20 21" fill="none" xmlns="http://www.w3.org/2000/svg">
<path d="M4.85335 6.76785H1.14576C0.981215 6.76785 0.847884 6.90989 0.847884 7.08504V19.768C0.847884 19.9432 0.981215 20.0852 1.14576 20.0852H4.85335C5.0179 20.0852 5.15123 19.9432 5.15123 19.768V7.08504C5.15123 6.90989 5.0179 6.76785 4.85335 6.76785Z" fill="#D8D6BF"/>
<path d="M3.0009 0.462891C1.65186 0.462891 0.554352 1.63027 0.554352 3.06517C0.554352 4.50071 1.65186 5.66853 3.0009 5.66853C4.34886 5.66853 5.44548 4.50064 5.44548 3.06517C5.44554 1.63027 4.34886 0.462891 3.0009 0.462891Z" fill="#D8D6BF"/>
<path d="M14.2839 6.4531C12.7948 6.4531 11.694 7.13474 11.0264 7.90926V7.08552C11.0264 6.91036 10.893 6.76833 10.7285 6.76833H7.1778C7.01325 6.76833 6.87992 6.91036 6.87992 7.08552V19.7685C6.87992 19.9437 7.01325 20.0857 7.1778 20.0857H10.8773C11.0418 20.0857 11.1752 19.9437 11.1752 19.7685V13.4934C11.1752 11.3788 11.7146 10.555 13.0989 10.555C14.6065 10.555 14.7263 11.8756 14.7263 13.6022V19.7686C14.7263 19.9438 14.8596 20.0858 15.0242 20.0858H18.7251C18.8896 20.0858 19.0229 19.9438 19.0229 19.7686V12.8117C19.0229 9.66743 18.4599 6.4531 14.2839 6.4531Z" fill="#D8D6BF"/>
</svg>
