<svg width="49" height="71" viewBox="0 0 49 71" fill="none" xmlns="http://www.w3.org/2000/svg">
<path d="M24.1416 57.1896C33.0552 47.5344 44.568 31.9392 44.568 24.1344C44.568 12.996 35.2872 3.708 24.1416 3.708C13.0032 3.3336 3.7152 12.6216 3.7152 24.1344C3.7152 31.9392 15.228 47.5344 24.1416 57.1896ZM24.1416 62.7624C24.1416 62.7624 0 37.512 0 24.1416C0 10.7712 10.7712 0 24.1416 0C37.512 0 48.2832 10.7712 48.2832 24.1416C48.2832 37.5048 24.1416 62.7624 24.1416 62.7624Z" fill="#D8D6BF"/>
<path d="M24.1416 32.3063C28.5984 32.3063 32.3136 28.5911 32.3136 24.1343C32.3136 19.6775 28.5984 15.9623 24.1416 15.9623C19.6848 15.9623 15.9696 19.6775 15.9696 24.1343C15.9696 28.5983 19.6848 32.3063 24.1416 32.3063ZM24.1416 36.0215C17.46 36.0215 12.2544 30.8231 12.2544 24.1343C12.2544 17.4527 17.4528 12.2471 24.1416 12.2471C30.8232 12.2471 36.0288 17.4455 36.0288 24.1343C36.0288 30.8231 30.8232 36.0215 24.1416 36.0215Z" fill="#D8D6BF"/>
<path d="M33.7968 54.9648V58.68C39.7368 59.796 43.452 61.2792 44.568 62.3952C43.0848 63.8784 36.396 66.852 24.1416 66.852C12.2544 66.852 5.1984 63.8784 3.7152 62.3952C4.8312 61.2792 8.5464 59.4216 15.228 58.68V54.9648C6.3144 56.0808 0 59.0472 0 62.3952C0 66.8448 10.7712 70.56 24.1416 70.56C37.512 70.56 48.2832 66.8448 48.2832 62.388C48.2832 59.0472 42.336 56.0736 33.7968 54.9648Z" fill="#D8D6BF"/>
</svg>
