<svg width="62" height="62" viewBox="0 0 62 62" fill="none" xmlns="http://www.w3.org/2000/svg">
<path d="M37.7812 33.5828L31.5812 30.0701V17.4628C35.0939 16.9455 37.7812 13.9501 37.7812 10.3328C37.7812 6.30279 34.5786 3.1001 30.5486 3.1001C26.5186 3.1001 23.3159 6.30279 23.3159 10.3328C23.3159 13.9501 26.0032 16.9455 29.5159 17.4628V28.8301L23.3159 25.3174L6.78319 32.0347V57.352L23.3159 50.6347L37.7832 58.902L54.3159 50.6347V25.3174L37.7832 33.5847L37.7812 33.5828ZM21.2486 49.2901L8.84856 54.2501V33.3774L21.2486 28.3147V49.2901ZM25.3813 10.3328C25.3813 7.4401 27.6539 5.16547 30.5486 5.16547C33.4432 5.16547 35.7159 7.43816 35.7159 10.3328C35.7159 13.2255 33.4432 15.5001 30.5486 15.5001C27.6539 15.5001 25.3813 13.2274 25.3813 10.3328ZM37.7812 56.6274L23.3139 48.3601V27.6928L29.5139 31.2055V40.2982H31.5812V32.3408L37.7812 35.8535V56.6235V56.6274ZM52.2486 49.3928L39.8486 55.5928V34.9255L52.2486 28.7255V49.3928Z" fill="#D8D6BF"/>
</svg>
