<svg width="65" height="64" viewBox="0 0 65 64" fill="none" xmlns="http://www.w3.org/2000/svg">
<path d="M24.5684 39.5243C30.3141 45.2278 36.9647 50.6764 39.5756 48.0455C43.314 44.2798 45.6151 41.0034 53.9108 47.6193C62.2065 54.2383 55.8709 58.6928 52.2501 62.3418C48.0718 66.5517 32.4222 62.6368 16.9102 47.2424C1.39904 31.8449 -2.63532 16.2258 1.54602 12.0139C5.16787 8.36476 9.57492 1.99765 16.2517 10.245C22.9318 18.4882 19.673 20.8145 15.9346 24.5813C13.3249 27.2111 18.8218 33.8196 24.5684 39.5243ZM32.8999 12.3142C32.8999 12.3142 31.1666 12.0434 29.953 13.258C28.7037 14.5072 28.6492 16.6594 29.9657 17.9747C30.7436 18.7527 31.8407 18.9185 31.8407 18.9185C33.9792 19.3196 37.2021 19.9987 40.6319 23.4274C44.0606 26.856 44.7398 30.0789 45.1409 32.2185C45.1409 32.2185 45.3067 33.3156 46.0846 34.0935C47.4001 35.409 49.5521 35.3554 50.8014 34.1062C52.015 32.8927 51.7451 31.1594 51.7451 31.1594C51.066 26.8279 48.9664 22.3032 45.3612 18.6982C41.7551 15.0931 37.2302 12.9944 32.8999 12.3142ZM49.1583 14.9009C55.4446 21.1873 58.1247 28.3218 57.2523 34.1031C57.2523 34.1031 56.9479 35.9339 58.1436 37.1296C59.4895 38.4755 61.6226 38.3979 62.8824 37.1392C63.6918 36.3298 63.8681 35.0122 63.8681 35.0122C64.5894 30.0162 63.6824 19.9653 53.8877 10.1717C44.0929 0.377847 34.0431 -0.52916 29.0469 0.191042C29.0469 0.191042 27.7305 0.366423 26.92 1.17679C25.6602 2.43656 25.5836 4.56984 26.9294 5.91561C28.1253 7.11147 29.9559 6.80687 29.9559 6.80687C35.7375 5.93444 42.8719 8.61471 49.1583 14.9009Z" fill="#D8D6BF"/>
</svg>
