<svg width="16" height="21" viewBox="0 0 16 21" fill="none" xmlns="http://www.w3.org/2000/svg">
<path d="M13.249 2.47375C11.9348 1.17706 10.1161 0.462891 8.12792 0.462891C5.09094 0.462891 3.22305 1.74241 2.19089 2.81574C0.918806 4.13849 0.189392 5.89486 0.189392 7.63457C0.189392 9.81889 1.07833 11.4954 2.56695 12.1192C2.66688 12.1612 2.76745 12.1824 2.86605 12.1824C3.1801 12.1824 3.42893 11.9712 3.51514 11.6324C3.5654 11.4381 3.68182 10.9586 3.73246 10.7504C3.84082 10.3394 3.75327 10.1417 3.51693 9.85542C3.08639 9.3318 2.88588 8.71264 2.88588 7.90684C2.88588 5.51333 4.61991 2.96954 7.83375 2.96954C10.3838 2.96954 11.9678 4.4592 11.9678 6.85712C11.9678 8.37032 11.6507 9.77167 11.0747 10.8032C10.6745 11.52 9.97064 12.3744 8.89015 12.3744C8.42292 12.3744 8.00319 12.1771 7.73836 11.8332C7.48819 11.5081 7.4057 11.0881 7.50635 10.6504C7.62001 10.1558 7.77502 9.63995 7.92503 9.14125C8.19862 8.23039 8.45726 7.37008 8.45726 6.68369C8.45726 5.50969 7.75503 4.72082 6.71 4.72082C5.38191 4.72082 4.34143 6.10723 4.34143 7.87713C4.34143 8.74515 4.56587 9.39439 4.66749 9.64366C4.50017 10.3722 3.50582 14.7039 3.31721 15.5207C3.20814 15.9975 2.55118 19.7636 3.63857 20.0639C4.86031 20.4013 5.9524 16.7334 6.06356 16.3189C6.15365 15.9818 6.46885 14.7072 6.66201 13.9237C7.25181 14.5076 8.20146 14.9024 9.12548 14.9024C10.8674 14.9024 12.434 14.0967 13.5367 12.6339C14.6061 11.215 15.1951 9.23748 15.1951 7.06577C15.195 5.36799 14.4857 3.69421 13.249 2.47375Z" fill="#D8D6BF"/>
</svg>
