<svg width="59" height="45" viewBox="0 0 59 45" fill="none" xmlns="http://www.w3.org/2000/svg">
<path opacity="0.5" d="M34.5495 30.7342C34.5495 21.7473 37.5616 13.5019 43.5856 5.99823C47.3949 1.46111 50.4512 -0.50207 52.7545 0.108696C54.8806 0.893966 55.9437 2.07187 55.9437 3.64241C55.9437 5.1257 55.235 6.69624 53.8176 8.35404C52.4887 10.0118 51.4257 11.3642 50.6284 12.4113C49.8311 13.4583 49.1667 14.5926 48.6351 15.8141C47.3949 18.2572 46.7748 21.2237 46.7748 24.7138C48.9009 24.1031 51.027 24.3648 53.1532 25.4991C57.0511 27.6804 59 30.4725 59 33.8753C59 37.1909 57.9369 39.8957 55.8108 41.9898C53.7733 43.9966 50.9384 45 47.3063 45C43.6742 45 40.6179 43.6476 38.1374 40.9428C35.7455 38.1507 34.5495 34.7479 34.5495 30.7342ZM0 30.7342C0 21.3983 2.96772 13.1529 8.90315 5.99823C13.4212 0.675835 17.1862 -0.938332 20.1982 1.15572C20.8183 1.59198 21.1284 2.29 21.1284 3.24978C21.1284 4.99482 20.464 6.69624 19.1351 8.35404C17.8949 10.0118 16.8761 11.3642 16.0788 12.4113C15.2815 13.4583 14.6171 14.5926 14.0856 15.8141C12.8453 18.2572 12.2252 21.2237 12.2252 24.7138C14.3514 24.1031 16.4332 24.3648 18.4707 25.4991C22.28 27.6804 24.1847 30.4725 24.1847 33.8753C24.1847 37.1909 23.1659 39.8957 21.1284 41.9898C19.0908 43.9966 16.256 45 12.6239 45C8.99174 45 5.97973 43.6476 3.58784 40.9428C1.19595 38.1507 0 34.7479 0 30.7342Z" fill="#D8D6BF"/>
</svg>
