<svg width="80" height="80" viewBox="0 0 68 68" fill="none" xmlns="http://www.w3.org/2000/svg">
<g clip-path="url(#clip0_8_20370)">
<path d="M67.9999 9.45529C67.9999 6.49602 67.1563 4.15416 65.493 2.49613C58.8161 -4.15597 41.261 2.91741 25.5206 18.6048C24.9487 19.1749 24.4259 19.7827 23.9233 20.4055C23.7583 20.3373 23.5684 20.2763 23.35 20.2255C18.8168 19.1661 4.26754 21.6377 0.0320994 38.5589C-0.0769011 38.9926 0.0974431 39.447 0.467831 39.6971C0.647393 39.8195 0.854911 39.8797 1.06241 39.8797C1.28128 39.8797 1.50026 39.8123 1.68599 39.6774C7.43475 35.5073 12.0466 33.83 16.0726 34.4474C15.7947 34.9511 15.5127 35.4425 15.2215 35.912C14.961 36.3322 15.0243 36.8759 15.374 37.2245L17.0411 38.8862L13.9204 41.9954C13.7201 42.1946 13.608 42.4654 13.608 42.7477C13.608 43.0299 13.7201 43.3007 13.9204 43.4999L24.3638 53.909C24.5713 54.1156 24.842 54.2193 25.1139 54.2193C25.3858 54.2193 25.6566 54.1156 25.8641 53.909L28.989 50.7942L30.6609 52.4606C30.8664 52.6649 31.1372 52.7709 31.4111 52.7709C31.603 52.7709 31.7961 52.7189 31.9683 52.6131C32.4074 52.3423 32.8632 52.0792 33.3322 51.8204C34.0238 55.8662 32.3486 60.5075 28.1115 66.3104C27.848 66.6716 27.8387 67.1591 28.0876 67.5296C28.2879 67.8284 28.621 67.9997 28.9696 67.9997C29.0547 67.9997 29.1408 67.9893 29.2259 67.9686C46.1627 63.7569 48.6653 49.2586 47.6215 44.7367C47.5576 44.4607 47.4741 44.2435 47.3836 44.0508C48.0588 43.5172 48.7167 42.9599 49.3315 42.3471C60.6724 31.0445 67.9999 18.1327 67.9999 9.45529ZM17.0611 32.4578C12.9159 31.5841 8.36082 32.7992 2.95185 36.2429C5.61224 28.8605 10.4579 25.373 14.2596 23.7305C17.1099 22.4999 19.7039 22.1555 21.364 22.1555C21.8092 22.1555 22.1858 22.1803 22.4836 22.2188L17.0611 32.4578ZM25.1139 51.6564L16.176 42.7477L18.5459 40.3871L26.2677 48.0821L27.4838 49.2938L25.1139 51.6564ZM44.1289 53.7337C42.4853 57.5406 38.9845 62.3914 31.5522 65.0508C35.0012 59.6646 36.2203 55.1282 35.3457 50.9945L45.6241 45.5865C45.8087 46.9831 45.6739 50.154 44.1289 53.7337ZM36.8574 47.669C34.9888 48.5686 33.2092 49.4236 31.576 50.3718L17.4637 36.3072C18.2258 35.0023 18.9304 33.585 19.6439 32.1211L23.9585 23.9748C24.8616 22.577 25.862 21.2647 27.021 20.1093C41.4208 5.75726 58.3492 -1.61904 63.9927 4.00063C65.242 5.24577 65.8749 7.08124 65.8749 9.45529C65.8749 17.4717 58.6231 30.0859 47.8311 40.8426C44.8252 43.8381 40.7744 45.7857 36.8574 47.669Z" fill="#D8D6BF"/>
<path d="M45.3948 13.6567C44.184 14.8613 43.5168 16.4644 43.5168 18.1702C43.5168 19.8771 44.184 21.4802 45.3948 22.6849C46.6431 23.9268 48.2825 24.5484 49.9218 24.5484C51.5613 24.5484 53.2007 23.9268 54.4479 22.6849C55.6588 21.4802 56.3249 19.8771 56.3249 18.1702C56.3249 16.4644 55.6588 14.8613 54.4479 13.6567C51.9535 11.1727 47.8913 11.1727 45.3948 13.6567ZM52.9496 21.1782C51.2791 22.8404 48.5636 22.8404 46.8932 21.1782C46.0869 20.3751 45.6418 19.3074 45.6418 18.1702C45.6418 17.0341 46.0869 15.9663 46.8932 15.1632C47.7284 14.3321 48.8251 13.9171 49.9218 13.9171C51.0186 13.9171 52.1143 14.3321 52.9496 15.1632C53.7558 15.9663 54.1999 17.0341 54.1999 18.1702C54.1999 19.3074 53.7558 20.3751 52.9496 21.1782Z" fill="#D8D6BF"/>
<path d="M17.4938 50.094C17.0798 49.6779 16.4075 49.6779 15.9914 50.0919L5.37164 60.6765C4.95651 61.0904 4.95449 61.7628 5.36951 62.1788C5.57701 62.3874 5.8489 62.4912 6.12176 62.4912C6.39258 62.4912 6.66448 62.3874 6.87198 62.181L17.4918 51.5964C17.9068 51.1824 17.9089 50.51 17.4938 50.094Z" fill="#D8D6BF"/>
<path d="M6.08235 55.2218C6.35318 55.2218 6.62496 55.118 6.83259 54.9115L13.826 47.941C14.241 47.5269 14.242 46.8546 13.828 46.4385C13.414 46.0224 12.7417 46.0214 12.3256 46.4364L5.33211 53.407C4.9171 53.821 4.91604 54.4934 5.3301 54.9095C5.5376 55.118 5.8095 55.2218 6.08235 55.2218Z" fill="#D8D6BF"/>
<path d="M19.6582 53.7452L12.6648 60.7159C12.2498 61.1298 12.2488 61.8023 12.6628 62.2183C12.8703 62.4268 13.1421 62.5306 13.4151 62.5306C13.6858 62.5306 13.9577 62.4268 14.1652 62.2204L21.1587 55.2498C21.5737 54.8358 21.5748 54.1634 21.1607 53.7474C20.7468 53.3313 20.0743 53.3302 19.6582 53.7452Z" fill="#D8D6BF"/>
</g>
<defs>
<clipPath id="clip0_8_20370">
<rect width="80" height="80" fill="white"/>
</clipPath>
</defs>
</svg>
