<svg width="20" height="20" viewBox="0 0 20 20" fill="none" xmlns="http://www.w3.org/2000/svg">
<path d="M6.65494 18.4518C6.65494 18.5716 6.72148 18.6815 6.8273 18.7375C6.93304 18.7935 7.0616 18.7863 7.16043 18.7186L9.38627 17.1988L6.65498 15.897V18.4518H6.65494Z" fill="#222222"/>
<path d="M19.8961 1.31096C19.835 1.25459 19.756 1.2251 19.6763 1.2251C19.6282 1.2251 19.5802 1.23576 19.5349 1.25807L0.319393 10.6838C0.12299 10.7803 -0.00129219 10.9809 4.11399e-05 11.2003C0.00137447 11.4194 0.127758 11.6186 0.325574 11.713L5.38987 14.126L15.5159 5.80325L6.64461 14.7238L12.9535 17.7299C13.031 17.767 13.1156 17.7855 13.1993 17.7855C13.2707 17.7855 13.3415 17.7725 13.4088 17.746C13.5558 17.6879 13.6725 17.5715 13.7308 17.4246L19.9771 1.66707C20.0265 1.54308 19.9943 1.4013 19.8961 1.31096Z" fill="#222222"/>
</svg>
