<svg width="28" height="28" viewBox="0 0 28 28" fill="none" xmlns="http://www.w3.org/2000/svg">
<g clip-path="url(#clip0_8_20625)">
<path d="M2.69109 25.3783H7.3504C8.43211 25.3783 9.36149 24.7324 9.78857 23.8091C10.0537 23.8266 10.6558 24.062 11.5625 25.0842C13.8686 27.6834 15.4377 27.9144 19.3347 27.9144L20.0314 27.9162C20.2677 27.918 20.4987 27.9188 20.728 27.9188C23.1102 27.9188 25.1222 27.8103 26.0866 26.4792C26.5977 25.7738 26.707 24.8663 26.4156 23.7172C26.9976 23.0232 27.9383 21.5284 27.4159 19.5541C27.9611 18.6413 28.3995 17.0039 27.4124 15.2238C27.6189 14.5316 27.9042 13.1619 27.394 11.9875C27.0833 11.2707 26.5154 10.7343 25.7531 10.4376C24.6784 10.0192 23.6676 10.0989 22.7758 10.1707C21.4185 10.2792 20.7385 10.2827 20.0427 9.20799C19.6025 8.52884 19.3015 7.35616 18.9838 6.11433C18.2486 3.2473 17.2396 -0.672528 13.3171 0.206158L13.1403 0.246387L12.9933 0.354044C12.8288 0.473929 11.4049 1.60987 11.8241 4.48302C12.2057 7.09707 11.3848 9.32439 9.86989 10.1103C9.49183 9.08022 8.5108 8.33896 7.3512 8.33896H2.69109C1.20771 8.33902 0 9.54673 0 11.031V22.6863C0 24.1706 1.20771 25.3783 2.69109 25.3783ZM13.5553 4.23021C13.3487 2.81336 13.7461 2.11319 13.9351 1.86993C15.7248 1.59599 16.396 3.0689 17.2878 6.55027C17.6423 7.93387 17.9774 9.24136 18.5743 10.1611C19.8686 12.1574 21.5559 12.0243 22.915 11.9158C23.6887 11.8554 24.4186 11.7959 25.1178 12.069C25.4477 12.1976 25.6604 12.3928 25.7882 12.6824C26.1181 13.4368 25.7926 14.6174 25.6403 15.0051L25.4705 15.4313L25.7243 15.8146C26.8296 17.4766 25.8923 18.7114 25.7882 18.8391L25.4547 19.2277L25.6315 19.709C26.2949 21.5136 24.9166 22.7747 24.8614 22.8237L24.4212 23.207L24.605 23.761C24.7905 24.3184 24.9515 25.064 24.6697 25.4544C24.1402 26.186 21.9611 26.1764 20.0393 26.1676L19.3347 26.1659C15.6512 26.1659 14.6894 25.9724 12.8717 23.9237C11.7121 22.6154 10.7573 22.1664 10.0423 22.0754V11.9315C12.6075 11.0712 14.0953 7.92684 13.5553 4.23021ZM1.75029 11.031C1.75029 10.512 2.17211 10.0902 2.69109 10.0902H7.3504C7.86937 10.0902 8.2912 10.512 8.2912 11.031V22.6863C8.2912 23.2062 7.86937 23.628 7.3504 23.628H2.69109C2.17211 23.628 1.75029 23.2062 1.75029 22.6863V11.031Z" fill="black"/>
</g>
<defs>
<clipPath id="clip0_8_20625">
<rect width="28" height="28" fill="white"/>
</clipPath>
</defs>
</svg>
