<svg width="80" height="80" viewBox="0 0 68 68" fill="none" xmlns="http://www.w3.org/2000/svg">
<g clip-path="url(#clip0_8_21374)">
<path d="M6.53549 61.6335H17.851C20.478 61.6335 22.735 60.065 23.7722 57.8228C24.4162 57.8652 25.8784 58.437 28.0804 60.9194C33.6808 67.2318 37.4916 67.7928 46.9558 67.7928L48.6476 67.7971C49.2215 67.8014 49.7825 67.8035 50.3394 67.8035C56.1247 67.8035 61.011 67.54 63.3531 64.3072C64.5943 62.5942 64.8599 60.3901 64.1522 57.5995C65.5656 55.9141 67.8503 52.284 66.5814 47.4891C67.9055 45.2723 68.9703 41.2957 66.573 36.9727C67.0745 35.2916 67.7674 31.9653 66.5283 29.113C65.7738 27.3724 64.3945 26.0695 62.5432 25.349C59.9333 24.333 57.4785 24.5265 55.3127 24.7008C52.0163 24.9643 50.3648 24.9728 48.6752 22.3629C47.6061 20.7135 46.875 17.8656 46.1034 14.8497C44.3181 7.8869 41.8676 -1.63268 32.3416 0.501267L31.9123 0.598965L31.5552 0.860418C31.1557 1.15157 27.6976 3.91029 28.7157 10.8879C29.6424 17.2363 27.6488 22.6455 23.9697 24.5541C23.0516 22.0526 20.6691 20.2524 17.8529 20.2524H6.53549C2.93302 20.2525 0 23.1855 0 26.7902V55.096C0 58.7005 2.93302 61.6335 6.53549 61.6335ZM32.9199 10.274C32.4184 6.83304 33.3833 5.13262 33.8424 4.54185C38.1888 3.87656 39.8189 7.45364 41.9847 15.9084C42.8456 19.2686 43.6595 22.4439 45.109 24.6776C48.2524 29.5256 52.3501 29.2025 55.6508 28.939C57.5297 28.7923 59.3022 28.6479 61.0003 29.3109C61.8016 29.6233 62.3181 30.0974 62.6284 30.8008C63.4297 32.6329 62.6391 35.5 62.2693 36.4415L61.857 37.4766L62.4733 38.4075C65.1576 42.4437 62.8814 45.4425 62.6284 45.7528L61.8187 46.6964L62.248 47.8653C63.8591 52.2479 60.5117 55.3105 60.3778 55.4296L59.3086 56.3605L59.7549 57.7058C60.2055 59.0597 60.5966 60.8704 59.9122 61.8184C58.6263 63.5953 53.3341 63.5718 48.6668 63.5506L46.9558 63.5463C38.0101 63.5463 35.6743 63.0765 31.2599 58.101C28.4437 54.9236 26.1249 53.8333 24.3885 53.6122V28.9772C30.6182 26.8879 34.2313 19.2515 32.9199 10.274ZM4.25069 26.7902C4.25069 25.5298 5.27514 24.5054 6.53549 24.5054H17.851C19.1113 24.5054 20.1358 25.5298 20.1358 26.7902V55.096C20.1358 56.3584 19.1113 57.3828 17.851 57.3828H6.53549C5.27514 57.3828 4.25069 56.3584 4.25069 55.096V26.7902Z" fill="#D8D6BF"/>
</g>
<defs>
<clipPath id="clip0_8_21374">
<rect width="80" height="80" fill="white"/>
</clipPath>
</defs>
</svg>
