<svg width="24" height="21" viewBox="0 0 24 21" fill="none" xmlns="http://www.w3.org/2000/svg">
<path d="M22.9221 2.72753C22.5595 2.8945 22.1866 3.03545 21.8056 3.14991C22.2566 2.62028 22.6005 1.99713 22.8105 1.31523C22.8575 1.16239 22.8088 0.995088 22.6877 0.895099C22.5669 0.795064 22.3989 0.78308 22.2659 0.864953C21.4568 1.36317 20.5838 1.72123 19.6685 1.93056C18.7465 0.995229 17.4942 0.462891 16.1996 0.462891C13.4669 0.462891 11.2437 2.77097 11.2437 5.60792C11.2437 5.83135 11.2573 6.05356 11.2843 6.27269C7.89331 5.96359 4.74075 4.23321 2.57593 1.47626C2.49878 1.378 2.37992 1.32501 2.25823 1.33517C2.13649 1.34505 2.02705 1.41634 1.96555 1.52593C1.52647 2.3081 1.29435 3.20271 1.29435 4.11295C1.29435 5.3527 1.72067 6.52893 2.4738 7.44807C2.24479 7.36573 2.02259 7.26284 1.81049 7.14061C1.69664 7.0748 1.55767 7.07583 1.44455 7.14314C1.33137 7.2105 1.2604 7.33432 1.25738 7.4697C1.25684 7.4925 1.25684 7.51529 1.25684 7.53842C1.25684 9.38891 2.21616 11.055 3.68287 11.963C3.55684 11.95 3.43095 11.931 3.30583 11.9062C3.17683 11.8806 3.04422 11.9275 2.95725 12.0297C2.87013 12.1317 2.84128 12.274 2.88145 12.4039C3.42433 14.1636 4.82205 15.4579 6.51177 15.8525C5.11031 16.7638 3.50765 17.2411 1.82523 17.2411C1.47417 17.2411 1.12112 17.2197 0.775601 17.1773C0.603946 17.1561 0.439821 17.2613 0.38134 17.4308C0.322859 17.6004 0.384857 17.7894 0.530856 17.8866C2.69221 19.3253 5.19133 20.0858 7.75795 20.0858C12.8036 20.0858 15.96 17.6156 17.7193 15.5433C19.9133 12.9594 21.1715 9.53927 21.1715 6.15996C21.1715 6.01878 21.1694 5.87624 21.1652 5.73412C22.0308 5.05709 22.776 4.23771 23.3824 3.29596C23.4745 3.15295 23.4645 2.96388 23.3578 2.83224C23.2514 2.70038 23.0737 2.65778 22.9221 2.72753Z" fill="#D8D6BF"/>
</svg>
