<svg width="28" height="26" viewBox="0 0 28 26" fill="none" xmlns="http://www.w3.org/2000/svg">
<path d="M1.55556 15.076C2.41466 15.076 3.11111 14.1118 3.11111 12.9223C3.11111 11.7328 2.41466 10.7686 1.55556 10.7686C0.696446 10.7686 0 11.7328 0 12.9223C0 14.1118 0.696446 15.076 1.55556 15.076Z" fill="#D8D6BF"/>
<path d="M26.5377 10.7686H7.68439C6.87683 10.7686 6.22217 11.675 6.22217 12.7931V13.0515C6.22217 14.1696 6.87683 15.076 7.68439 15.076H26.5377C27.3453 15.076 27.9999 14.1696 27.9999 13.0515V12.7931C27.9999 11.675 27.3453 10.7686 26.5377 10.7686Z" fill="#D8D6BF"/>
<path d="M26.5378 21.5372H1.46222C0.654659 21.5372 0 22.4436 0 23.5617V23.8202C0 24.9383 0.654659 25.8447 1.46222 25.8447H26.5378C27.3453 25.8447 28 24.9383 28 23.8202V23.5617C28 22.4436 27.3453 21.5372 26.5378 21.5372Z" fill="#D8D6BF"/>
<path d="M26.5378 0H1.46222C0.654659 0 0 0.906399 0 2.0245V2.28294C0 3.40104 0.654659 4.30744 1.46222 4.30744H26.5378C27.3453 4.30744 28 3.40104 28 2.28294V2.0245C28 0.906399 27.3453 0 26.5378 0Z" fill="#D8D6BF"/>
</svg>
